<svg xmlns="http://www.w3.org/2000/svg" xmlns:xlink="http://www.w3.org/1999/xlink" width="550" zoomAndPan="magnify" viewBox="0 0 412.5 82.499998" height="110" preserveAspectRatio="xMidYMid meet" version="1.0"><defs><g/></defs><g fill="#000000" fill-opacity="1"><g transform="translate(0.669549, 73.319859)"><g><path d="M 52.324219 0 L 52.324219 -26.015625 L 44.976562 -33.261719 L 52.324219 -40.609375 L 52.324219 -66.226562 L 2.582031 -66.226562 L 2.582031 0 Z M 35.746094 -40.609375 L 19.164062 -40.609375 L 19.164062 -51.035156 L 35.746094 -51.035156 Z M 35.746094 -15.09375 L 19.164062 -15.09375 L 19.164062 -26.015625 L 35.746094 -26.015625 Z M 35.746094 -15.09375 "/></g></g></g><g fill="#000000" fill-opacity="1"><g transform="translate(63.023713, 73.319859)"><g><path d="M 19.164062 0 L 19.164062 -66.226562 L 2.582031 -66.226562 L 2.582031 0 Z M 19.164062 0 "/></g></g></g><g fill="#000000" fill-opacity="1"><g transform="translate(92.215131, 73.319859)"><g><path d="M 52.324219 0 L 52.324219 -26.015625 L 35.746094 -26.015625 L 35.746094 -15.09375 L 19.164062 -15.09375 L 19.164062 -51.035156 L 52.324219 -51.035156 L 52.324219 -66.226562 L 2.582031 -66.226562 L 2.582031 0 Z M 52.324219 0 "/></g></g></g><g fill="#000000" fill-opacity="1"><g transform="translate(154.569299, 73.319859)"><g><path d="M 52.324219 0 L 42.59375 -18.46875 L 52.324219 -18.46875 L 52.324219 -66.226562 L 2.582031 -66.226562 L 2.582031 0 L 19.164062 0 L 19.164062 -18.46875 L 26.3125 -18.46875 L 35.746094 0 Z M 35.746094 -33.558594 L 19.164062 -33.558594 L 19.164062 -51.035156 L 35.746094 -51.035156 Z M 35.746094 -33.558594 "/></g></g></g><g fill="#000000" fill-opacity="1"><g transform="translate(216.923458, 73.319859)"><g><path d="M 52.324219 0 L 52.324219 -66.226562 L 2.582031 -66.226562 L 2.582031 0 Z M 35.746094 -15.09375 L 19.164062 -15.09375 L 19.164062 -51.035156 L 35.746094 -51.035156 Z M 35.746094 -15.09375 "/></g></g></g><g fill="#000000" fill-opacity="1"><g transform="translate(279.277617, 73.319859)"><g><path d="M 67.714844 0 L 67.714844 -66.226562 L 1.488281 -66.226562 L 1.488281 -51.035156 L 4.765625 -51.035156 L 4.765625 0 L 18.070312 0 L 18.070312 -51.035156 L 26.3125 -51.035156 L 26.3125 0 L 42.894531 0 L 42.894531 -51.035156 L 51.132812 -51.035156 L 51.132812 0 Z M 67.714844 0 "/></g></g></g><g fill="#000000" fill-opacity="1"><g transform="translate(357.021683, 73.319859)"><g><path d="M 52.324219 0 L 52.324219 -40.609375 L 19.164062 -40.609375 L 19.164062 -51.035156 L 52.324219 -51.035156 L 52.324219 -66.226562 L 2.582031 -66.226562 L 2.582031 -26.015625 L 35.746094 -26.015625 L 35.746094 -15.09375 L 2.582031 -15.09375 L 2.582031 0 Z M 52.324219 0 "/></g></g></g></svg>